<svg xmlns="http://www.w3.org/2000/svg" width="809" height="335" viewBox="0 0 809 335">
  <defs>
    <style>
      .cls-1 {
        fill: #ffffff;
        fill-rule: evenodd;
      }
    </style>
  </defs>
  <path id="Color_Fill_1" data-name="Color Fill 1" class="cls-1" d="M350,38c18.22,0.317,34.871,13.07,40,27-3.695,6.45-26.939,13.813-34,12l27-12c-3.708-11.7-21.933-18.569-34-22Q349.5,40.5,350,38ZM178,45c17.592-.239,28.214,2.882,35,13,9.162,13.66,3.156,39.046,3,58-0.327,39.681.785,79.29,7,114,3,16.727,9.166,62.959-4,71-16.457,5.235-51.555-36.169-58-48l-20,10,16-14v-3l-3-2c-5.218,2.205-9.234,3.251-14,1v-5c12.3-9.2,24.806-22.775,32-37l-1-1c-31.394,1.858-43.6,21.615-51,49-4.455-.747-4.2-1.25-7-3-8.079-47.334,26.968-63.652,49-87L85,200l-2-3,1-2c17.93-26.8,43.934-21.574,55-64-10.789,2.662-23.314,16.166-37,11l-4-3,2-2c13.271,3.56,30.933-9.25,40-15,0.269-13.711-5.168-29.283-5-32l3-1c2.6,1.4,3.334,1.612,5,4,4.39,6.2,3.295,18.619,4,26,7.514-4.065,18.287-10.479,24-2-8.327,17.881-27.182,21.783-29,46,11.066-5.464,27.215-15.624,41-14q0.5,2,1,4l-3,4c-27.5,9.443-58.107,38.577-63,71l2-1c6.175-15.254,32.682-33.787,54-30l4,3c-0.689,19.52-16.325,22.808-23,36h1c3.7-1.528,10.422-3.108,15-1,1.923,1.392.6,0.1,2,2l2,3c-3.183,5.518-7.5,7.94-12,12,9.249,15.974,34.043,38.6,54,43l1-1c2.449-59.914-8.009-111.1-8-174,0-28.641,7.219-62.1-17-69-20.872-5.944-43.972,10.293-55,17-22.555,13.716-50.509,37.169-60,63l-2,28c-5.728,31.925-12.614,101.014-32,117-14.316-3.6-4.728-47.513-2-59,9.123-38.421,49.186-101.583,18-138l1-2,5,1c13.034,5.969,12.638,24.554,12,44l2-1c10.6-28.607,46.223-57.112,74-69Zm413,5,8,3c4.853,20.548.135,45.938-3,64,9.1-6.055,23.049-23.052,34-22l6,15,2-1c4.737-12.968,11.366-40.458,21-50l5,1c3.655,1.65,4.31,2.389,6,6,9.893,32.553-18.913,63.269-22,93h1l3-3c24.068-10.768,35.923-36.071,68-40l4,4c-3.029,16.545-26.842,23.175-36,35,6.914,25.654-.313,46.514-5,70l45,39c14.747,10.376,37.416,14.489,49,28v1c-44.549-6.21-67.222-40.64-97-62-9.351,10.9-13.4,25.354-26,33-23.935,14.521-37.762-8.4-37-33l-2,1c-6.225,15.882-27.817,42.585-47,45l-2-1q-0.5-3.5-1-7c9.058-16.778,25.862-27.4,26-52h-1c-7.625,4.388-13.809,9.664-24,9l-4-4c-0.113-9.321,2.7-14.176,9-17-3.3,5.195-4.851,7.643-4,15h5c15.1-6.688,20.931-11.286,19-33l-17,15c7.96-18.956,28.976-31.342,41-47l-53,27-5-4q0.5-1,1-2c5.256-10.844,18.887-19.645,28-27,14.581-11.768,29.766-28.988,40-45l-1-1c-11.426,8.83-47.062,42.792-66,34-2.03-14.389,3.838-32.965,11-42h4c6.12,5.624,9.9,13.566,16,19,2.148-15.256,7.331-34.936,4-54C593.146,55.11,590.47,55.034,591,50Zm69,14c-11.742,11.933-11.315,38.223-21,52l-6-1c-2.47-1.564-3.124-3.006-5-5l-62,63c20.992-5.828,32.047-24.531,57-26l2,3c0.991,3,.689,2.675-1,5l-29,29c2.6,4.814,3.893,10.305,4,18l12-5,3,4c-1.817,14.873-12.924,27.792-19,42-3.7-1.815-1.418-2.286-4-1l-17,26c22.019-15.214,51.268-45.816,57-76h2l-4,14h1c17.855-8.763,34.19,4.063,46,13,12.312-14.184,8.92-43.829,7-64l31-31c-17.192,4.943-64.994,47.768-72,39-6.852-17.712,27.316-65.972,22-97ZM540,66c3.2,1.622,4.189,1.849,6,5,5.422,15.353-28.129,53.006-35,65,10.631-3.832,23.083-16.416,37-10,2.542,25.736-27.939,42.394-36,63,6.188-1.759,8.135.161,12,3,5.992,24.01-6.917,66.154,0,84v-2q6-12.5,12-25h1a71.539,71.539,0,0,1-12,38l-6-1c-11.658-26.007,6.028-64.591-1-93l-3-1c-15.156,11.19-24.555,26.907-39,38-3.637-1.136-2.736-1.133-5-3v-1c25.846-27.076,54.235-59.771,71-95v-1c-12.946,1.556-31.832,21.1-40,9C513.411,112.127,538.084,95.064,540,66ZM413,77c5.543,0.33,5.161.7,8,3v1c-29.728,22.5-67.6,31.443-90,61-20.9,27.585-30.281,63.744-46,97,11.208,0.7,46.805,12.469,48,11,4.5-3.595,11.323-15.358,9-22-2.777-6.948-9.6-6.432-13-13-3.616-14.368,11.4-32.235,17-43v-1c-12.275,2.184-15.444,9.972-24,15v-6c3.12-6.16,22.252-22.309,29-11,5.676,16.6-21.136,30.009-15,46,6.258,1.743,9.87,3.98,12,10,5.314,12.738-7.078,23.644-8,31,24.292,5.19,44.334,19.226,72,24,29.316,5.059,54.19-18.117,76-12v1c-18.2,3.976-33.135,14.314-54,18-42.9,7.58-68.948-20.768-100-27-8.071,11.263-22.583,19.965-41,15-3.335-4.4-6.446-6.5-8-13h1v2l9,8c15.639,4.461,24.194-8.113,33-14l-1-2c-14.387-4.313-25.392-11.381-44-12-3.966,20.98-17.867,41.973-29,57h-5l-2-3c-4.874-15.179,9.058-46.36,18-53l14-6,7-21q14-31.5,28-63c16.836-27.348,44.075-37.33,66-59-20.253,8.083-63.418,29.324-85,14v-3l1-1C313.519,118.472,396.856,86.923,413,77ZM573,98q-4.5,17-9,34l2,1,23-11C587.2,113.809,580.973,100.408,573,98ZM160,120l-14,7q-0.5,5.5-1,11C149.28,135.018,161.012,124.179,160,120Zm254,0,7,4q0.5,3,1,6c-6.007,6.15-13.875,9.976-20,16q0.5,5,1,10c6.308,2.777,22.412,6.11,26,12l1,3a143.463,143.463,0,0,1-27,15c0.351,16,.268,32.085-4,43h-5l-5-6-18,14,59-16c-6.666-6.7-17.648-8.978-22-18l31,17-2,6c-19.779,6.116-48.365,20.782-71,17-1.113-2.834-1.82-3.293-1-6,2.743-6.683,9.2-11.431,16-14-1.8-2.042-.015-0.707-3-2,6.215-4.34,12.327-2.889,16-10q1-11,2-22c-10.509,4.756-20.155,9.532-34,11l-4-3C359.221,175.254,398.467,130.1,414,120Zm-1,6-16,16c6.832-3.4,15.613-8.069,18-16h-2ZM70,147c-10.425,32.761-35.259,75.442-27,121h1C48.879,245.015,78.592,174.025,70,147Zm325,2c-12.372,10.473-25.479,27.264-31,44h4l28-10C398.44,175.105,397.947,152.362,395,149Zm-260,7-25,23,26-13Q135.5,161,135,156Zm269,4v19l18-10Zm200,46-6,5q0.5,3.5,1,7v-2Q601.5,211,604,206Zm35,1c-20.735,10.73-22.782,33.943-9,53,24.717,7.174,36.43-17.6,44-34C666.443,216.408,653.915,209.15,639,207ZM394,218l-2,3C395.138,219.225,393.476,219.991,394,218ZM163,241l-6,2v1l2,3,7-6h-3Zm112,3c-8.464,5.781-33.631,34.187-22,50v-2C259.888,284.232,277.78,255.111,275,244Zm9,15,1,3h-1v-3Z"/>
</svg>
